# xmcd CD database file
#
# Track frame offsets:
#	150
#	20630
#	45198
#	66115
#	83015
#	111455
#	128858
#	152285
#	189893
#	213485
#	234865
#	253853
#	280383
#	300438
#
# Disc length: 4357 seconds
#
# Revision: 0
# Processed by: cddbd v1.5.2PL0 Copyright (c) Steve Scherf et al.
# Submitted via: CDex 1.51
#
DISCID=b111030e
DTITLE=Berklee College of Music - ONE, TWO, THREE, FOUR (Jazz and More...)
DYEAR=1992
DGENRE=Jazz
TTITLE0=Night And Day
TTITLE1=Summertime
TTITLE2=Rain Waltz
TTITLE3=If I Fell
TTITLE4=Evidence
TTITLE5=Trinkle Tinkle
TTITLE6=Humph/Epistrophy
TTITLE7=Little African Flower
TTITLE8=Mineur
TTITLE9=Own Legs
TTITLE10=He's Been Faithful
TTITLE11=He Has It In Control
TTITLE12=Jesus Will See You Through
TTITLE13=Over And Over He Keeps On Blessing Me
EXTD=YEAR: 1992
EXTT0=
EXTT1=
EXTT2=
EXTT3=
EXTT4=
EXTT5=
EXTT6=
EXTT7=
EXTT8=
EXTT9=
EXTT10=
EXTT11=
EXTT12=
EXTT13=
PLAYORDER=
